<?xml version="1.0" standalone="no"?>
<!DOCTYPE svg PUBLIC "-//W3C//DTD SVG 1.1//EN" "http://www.w3.org/Graphics/SVG/1.1/DTD/svg11.dtd" >
<svg xmlns="http://www.w3.org/2000/svg">
<metadata>Generated by IcoMoon</metadata>
<defs>
<font id="icomoon" horiz-adv-x="1024">
<font-face units-per-em="1024" ascent="960" descent="-64" />
<missing-glyph horiz-adv-x="1024" />
<glyph unicode="&#x20;" horiz-adv-x="512" d="" />
<glyph unicode="&#xe900;" glyph-name="check-mark-sircle-line" d="M512 853.334c-234.667 0-426.667-192-426.667-426.667s192-426.667 426.667-426.667c234.667 0 426.667 192 426.667 426.667s-192 426.667-426.667 426.667zM512 85.334c-187.733 0-341.333 153.6-341.333 341.333s153.6 341.333 341.333 341.333 341.333-153.6 341.333-341.333-153.6-341.333-341.333-341.333z" />
<glyph unicode="&#xe901;" glyph-name="check-mark-square-line" d="M810.667 810.667h-597.333c-46.933 0-85.333-38.4-85.333-85.333v-597.333c0-46.933 38.4-85.333 85.333-85.333h597.333c46.933 0 85.333 38.4 85.333 85.333v597.333c0 46.933-38.4 85.333-85.333 85.333zM810.667 128h-597.333v597.333h597.333v-597.333z" />
<glyph unicode="&#xe902;" glyph-name="ask-us" d="M463.237 182.858h97.523v-97.523h-97.523v97.523zM663.163 460.8l-43.886-43.886c-39.009-34.133-58.514-63.391-58.514-136.533h-97.523v24.381c0 53.637 19.505 102.4 58.514 136.533l58.514 63.391c19.505 14.628 29.258 39.009 29.258 68.267 0 53.637-43.886 97.523-97.523 97.523s-97.523-43.886-97.523-97.523h-97.523c0 107.277 87.772 195.049 195.049 195.049s195.049-87.772 195.049-195.049c0-43.886-19.505-82.895-43.886-112.153z" />
<glyph unicode="&#xe903;" glyph-name="tip-us" d="M687.234 368.255c-29.206-29.206-43.808-53.543-38.941-92.485s-14.602-53.543-53.543-48.677c-29.206 0-53.543 0-82.749 0s-53.543 0-82.749 0c-34.073 0-48.677 14.602-48.677 48.677 4.867 38.941-9.735 68.147-38.941 97.351-87.616 87.616-82.749 233.646 9.735 321.262s233.646 87.616 326.128 0c92.485-97.351 97.351-238.513 9.735-326.128zM419.515 158.948c58.412 0 116.822 0 175.234 0 4.867 0 14.602 0 19.471 0 4.867-53.543 0-63.279-53.543-63.279-29.206 0-58.412 0-87.616 0-48.677-4.867-63.279 4.867-53.543 63.279z" />
<glyph unicode="&#xe904;" glyph-name="facebook3" d="M378.666 512.001h64.001v64.001c0 26.667 0 74.667 21.333 101.335s53.335 48 101.335 48c85.334 0 117.333-10.666 117.333-10.666l-16.001-96c0 0-26.667 5.335-53.335 5.335s-48-10.666-48-37.334v-74.667h106.666l-5.335-96h-96v-330.665h-122.667v330.665h-69.333v96z" />
<glyph unicode="&#xe905;" glyph-name="google" d="M410.665 138.667c-74.667 0-133.334 48-133.334 106.666s69.333 101.335 144 101.335c16.001 0 31.999-5.335 48-5.335 42.665-26.667 69.333-42.665 79.999-79.999 0-5.335 0-16.001 0-21.333 5.335-53.335-31.999-101.335-138.665-101.335zM426.666 480.002c-53.335 0-101.335 58.666-106.666 122.667-5.335 69.333 26.667 117.333 79.999 117.333s101.335-53.335 106.666-122.667c10.666-64.001-26.667-117.333-79.999-117.333zM533.333 378.667c-16.001 10.666-53.335 42.665-53.335 64.001s5.335 31.999 37.334 58.666c31.999 26.667 53.335 64.001 53.335 101.335 0 48-21.333 96-64.001 112.001h64.001l53.335 31.999h-197.335c-90.665 0-175.999-64.001-175.999-144s58.666-144 149.335-144c5.335 0 10.666 0 16.001 0-5.335-10.666-10.666-21.333-10.666-37.334 0-21.333 10.666-42.665 26.667-53.335-10.666 0-21.333 0-31.999 0-112.001 0-197.335-69.333-197.335-144 5.335-69.333 101.335-117.333 208.001-117.333 127.999 0 197.335 69.333 197.335 144 0 58.666-21.333 90.665-74.667 127.999zM821.333 474.667h-74.667v74.667h-64.001v-74.667h-74.667v-64.001h74.667v-74.667h64.001v74.667h74.667v64.001z" />
<glyph unicode="&#xe906;" glyph-name="rss" d="M336.001 250.668c16.001-16.001 26.667-37.334 26.667-58.666s-10.666-42.665-26.667-58.666v0c-16.001-16.001-37.334-26.667-58.666-26.667s-42.665 10.666-58.666 26.667c-16.001 16.001-26.667 37.334-26.667 58.666s10.666 42.665 26.667 58.666v0c16.001 16.001 37.334 26.667 58.666 26.667s42.665-10.666 58.666-26.667zM336.001 250.668v0 0 0zM218.665 133.332v0 0 0zM192.001 528.002v-122.667c79.999 0 154.666-31.999 213.333-85.334 58.666-58.666 85.334-133.334 85.334-213.333v0 0h122.667c0 117.333-48 223.999-122.667 298.666s-181.334 122.667-298.666 122.667zM192.001 746.666v-122.667c282.665 0 517.334-234.665 517.334-517.334h122.667c0 175.999-69.333 336-186.665 453.333s-277.334 186.665-453.333 186.665z" />
<glyph unicode="&#xe907;" glyph-name="twetter2" d="M844.8 631.895c-22.188-11.092-49.92-16.64-77.652-22.188 27.732 16.64 49.92 44.372 61.012 77.652-27.732-16.64-55.468-27.732-88.748-33.28-16.64 33.28-61.012 49.92-94.292 49.92-77.652 0-138.668-61.012-138.668-138.668 0-11.092 0-22.188 5.548-33.28-110.932 5.548-221.868 61.012-282.88 138.668-16.64-11.092-22.188-38.828-22.188-66.56 0-49.92 22.188-88.748 61.012-116.48-22.188 0-44.372 5.548-61.012 16.64v0c0-66.56 44.372-122.028 110.932-133.12-11.092-5.548-22.188-5.548-38.828-5.548-11.092 0-16.64 0-27.732 0 16.64-55.468 66.56-94.292 127.572-94.292-44.372-38.828-105.388-61.012-171.948-61.012-11.092 0-22.188 0-33.28 0 66.56-38.828 138.668-61.012 216.32-61.012 249.6 0 388.268 210.772 388.268 388.268 0 5.548 0 11.092 0 16.64 27.732 33.28 55.468 49.92 66.56 77.652z" />
<glyph unicode="&#xe908;" glyph-name="youtube" d="M656.313 426.667l-244.704-144.313v288.627l244.704-144.313zM888.472 294.903v263.528c0 0 0 131.764-131.764 131.764h-489.412c0 0-131.764 0-131.764-131.764v-269.803c0 0 0-131.764 131.764-131.764h495.687c-6.275 6.275 125.489 6.275 125.489 138.039z" />
<glyph unicode="&#xe909;" glyph-name="sing-in" d="M640 426.667c93.867 0 170.667 76.8 170.667 170.667s-76.8 170.667-170.667 170.667-170.667-76.8-170.667-170.667 76.8-170.667 170.667-170.667zM256 512v128h-85.333v-128h-128v-85.333h128v-128h85.333v128h128v85.333h-128zM640 341.334c-115.2 0-341.333-55.467-341.333-170.667v-85.333h682.667v85.333c0 115.2-226.133 170.667-341.333 170.667z" />
<glyph unicode="&#xe90a;" glyph-name="user" d="M512 426.667c93.867 0 170.667 76.8 170.667 170.667s-76.8 170.667-170.667 170.667-170.667-76.8-170.667-170.667 76.8-170.667 170.667-170.667zM512 341.334c-115.2 0-341.333-55.467-341.333-170.667v-85.333h682.667v85.333c0 115.2-226.133 170.667-341.333 170.667z" />
<glyph unicode="&#xe90b;" glyph-name="view" d="M512 682.667v-128l170.667 170.667-170.667 170.667v-128c-187.733 0-341.333-153.6-341.333-341.333 0-68.267 21.333-128 51.2-183.467l64 64c-17.067 34.133-29.867 76.8-29.867 119.467 0 140.8 115.2 256 256 256zM802.133 610.134l-64-64c17.067-34.133 29.867-76.8 29.867-119.467 0-140.8-115.2-256-256-256v128l-170.667-170.667 170.667-170.667v128c187.733 0 341.333 153.6 341.333 341.333 0 68.267-21.333 128-51.2 183.467z" />
<glyph unicode="&#xe90c;" glyph-name="log-in" d="M308 789.333h281.066v-81.6h-281.066v-562.134h281.066v-81.6h-281.066c-45.334 0-81.6 36.266-81.6 81.6v562.134c4.534 45.334 40.8 81.6 81.6 81.6zM434.934 426.667l181.334-181.334v136h181.334v90.666h-181.334v136z" />
<glyph unicode="&#xe90d;" glyph-name="log-out" d="M308 789.333h281.066v-81.6h-281.066v-562.134h281.066v-81.6h-281.066c-45.334 0-81.6 36.266-81.6 81.6v562.134c4.534 45.334 40.8 81.6 81.6 81.6zM616.266 608.001v-136h-181.334v-90.666h181.334v-136l181.334 181.334z" />
<glyph unicode="&#xe90e;" glyph-name="arrow-right" d="M426.667 682.667l-60.16-60.16 195.413-195.84-195.413-195.84 60.16-60.16 256 256z" />
<glyph unicode="&#xe90f;" glyph-name="arrows-left" d="M657.493 622.507l-60.16 60.16-256-256 256-256 60.16 60.16-195.413 195.84z" />
<glyph unicode="&#xe910;" glyph-name="battery-nonremovable" d="M533.333 64v93.867c0 29.867 12.8 51.2 29.867 72.533v8.533c0 76.8 64 140.8 140.8 140.8 4.267 0 8.533 0 17.067 0v332.8c4.267 29.867-21.333 55.467-55.467 55.467h-68.267v85.333h-170.667v-85.333h-72.533c-29.867 0-55.467-25.6-55.467-55.467v-652.8c0-34.133 25.6-59.733 55.467-59.733h179.2v64zM789.333 192v46.933c0 42.667-34.133 81.067-81.067 81.067s-81.067-34.133-81.067-81.067v-46.933c-17.067 0-29.867-12.8-29.867-29.867v-128c0-17.067 12.8-29.867 29.867-29.867h157.867c17.067 0 29.867 12.8 29.867 29.867v128c4.267 12.8-8.533 29.867-25.6 29.867zM755.2 192h-93.867v46.933c0 25.6 21.333 46.933 46.933 46.933s46.933-21.333 46.933-46.933v-46.933z" />
<glyph unicode="&#xe911;" glyph-name="more-devices" d="M512 853.334c-234.667 0-426.667-192-426.667-426.667s192-426.667 426.667-426.667 426.667 192 426.667 426.667-192 426.667-426.667 426.667zM512 85.334l-59.733 59.733 238.933 238.933h-520.533v85.333h520.533l-238.933 238.933 59.733 59.733 341.333-341.333-341.333-341.333z" />
<glyph unicode="&#xe912;" glyph-name="battery-removable" d="M661.333 772.267h-68.267v85.333h-170.667v-85.333h-68.267c-34.133 0-59.733-25.6-59.733-55.467v-657.067c0-34.133 25.6-59.733 59.733-59.733h315.733c34.133 0 59.733 25.6 59.733 59.733v652.8c-8.533 34.133-34.133 59.733-68.267 59.733z" />
<glyph unicode="&#xe913;" glyph-name="camera" d="M413.867 503.467l-153.6 268.8c72.533 51.2 157.867 81.067 251.733 81.067 34.133 0 68.267-4.267 98.133-12.8l-196.267-337.067zM89.6 379.734c-4.267 17.067-4.267 29.867-4.267 46.933 0 115.2 42.667 217.6 115.2 290.133l196.267-337.067h-307.2zM529.067 550.4l153.6 264.533c110.933-51.2 200.533-145.067 234.667-264.533h-388.267zM627.2 473.6h307.2c0-17.067 4.267-29.867 4.267-46.933 0-115.2-46.933-217.6-119.467-294.4l-192 341.333zM494.933 302.934l-153.6-268.8c-115.2 51.2-200.533 145.067-238.933 268.8 0 0 392.533 0 392.533 0zM610.133 345.6l149.333-268.8c-68.267-46.933-153.6-76.8-247.467-76.8-34.133 0-64 4.267-98.133 12.8l196.267 332.8z" />
<glyph unicode="&#xe914;" glyph-name="no-camera" d="M866.133 187.734c46.933 68.267 72.533 153.6 72.533 243.2 0 17.067 0 29.867-4.267 46.933h-307.2l68.267-123.733 170.667-166.4zM533.333 554.667l153.6 264.533c110.933-51.2 200.533-145.067 234.667-264.533h-388.267zM499.2 307.2l-153.6-268.8c-115.2 51.2-200.533 145.067-238.933 268.8h392.533zM460.8 588.8l149.333 256c-29.867 8.533-59.733 12.8-98.133 12.8-89.6 0-170.667-29.867-243.2-76.8l192-192zM896 51.2l-55.467-55.467-81.067 81.067c-68.267-46.933-153.6-76.8-243.2-76.8-34.133 0-64 4.267-98.133 12.8l149.333 256-243.2 243.2 72.533-128h-307.2c0 17.067-4.267 29.867-4.267 46.933 0 89.6 29.867 174.933 76.8 243.2l-76.8 76.8 51.2 55.467 759.467-755.2z" />
<glyph unicode="&#xe915;" glyph-name="released-on" d="M810.667 810.667h-42.667v85.333h-85.333v-85.333h-341.333v85.333h-85.333v-85.333h-42.667c-46.933 0-85.333-38.4-85.333-85.333v-597.333c0-46.933 38.4-85.333 85.333-85.333h597.333c46.933 0 85.333 38.4 85.333 85.333v597.333c0 46.933-38.4 85.333-85.333 85.333zM810.667 128h-597.333v469.333h597.333v-469.333zM298.667 512h213.333v-213.333h-213.333v213.333z" />
<glyph unicode="&#xe916;" glyph-name="storage" d="M866.133 644.267v85.333h-85.333v-4.267c0 46.933-38.4 85.333-85.333 85.333h-362.667c-46.933 0-85.333-38.4-85.333-85.333v4.267h-85.333v-85.333h85.333v-89.6h-85.333v-85.333h85.333v-85.333h-85.333v-85.333h85.333v-89.6h-85.333v-85.333h85.333v4.267c0-46.933 38.4-85.333 85.333-85.333h362.667c46.933 0 85.333 38.4 85.333 85.333v-4.267h85.333v85.333h-85.333v89.6h85.333v85.333h-85.333v85.333h85.333v85.333h-85.333v89.6h85.333zM695.467 128h-362.667v597.333h362.667v-597.333zM418.133 640h192v-426.667h-192v426.667z" />
<glyph unicode="&#xe917;" glyph-name="ram-chipset" d="M896 563.2v85.333h-85.333v-8.533c0 46.933-34.133 81.067-81.067 85.333v85.333h-85.333v-85.333h-89.6v85.333h-85.333v-85.333h-89.6v85.333h-85.333v-85.333h4.267c-46.933 0-85.333-38.4-85.333-85.333v8.533h-85.333v-85.333h85.333v-89.6h-85.333v-85.333h85.333v-89.6h-85.333v-85.333h85.333c0-46.933 38.4-85.333 85.333-85.333h-8.533v-85.333h85.333v85.333h93.867v-85.333h85.333v85.333h89.6v-85.333h85.333v85.333c42.667 0 81.067 38.4 81.067 81.067h85.333v85.333h-85.333v89.6h85.333v85.333h-85.333v93.867h85.333zM725.333 213.334h-426.667v426.667h426.667v-426.667zM384 554.667h256v-256h-256v256z" />
<glyph unicode="&#xe918;" glyph-name="copyright" d="M430.080 475.307c2.133 14.080 6.827 26.453 12.8 37.12s14.507 19.627 25.173 26.453c10.24 6.4 23.040 9.387 38.827 9.813 9.813-0.427 18.773-2.133 26.88-5.547 8.533-3.84 16.213-8.96 22.187-15.36s10.667-14.080 14.507-22.613 5.547-17.92 5.973-27.307h76.373c-0.853 20.053-4.693 38.4-11.947 55.040s-17.067 31.147-29.867 43.093-28.16 21.333-46.080 28.16-37.547 9.813-59.307 9.813c-27.733 0-52.053-4.693-72.533-14.507s-37.547-22.613-51.2-39.253-23.893-35.84-30.293-58.027-10.24-45.227-10.24-69.973v-11.52c0-24.747 3.413-47.787 9.813-69.973s16.64-41.387 30.293-57.6 30.72-29.44 51.2-38.827 44.8-14.507 72.533-14.507c20.053 0 38.827 3.413 56.32 9.813s32.853 15.36 46.080 26.88 23.893 24.747 31.573 40.107 12.373 31.573 12.8 49.067h-76.373c-0.427-8.96-2.56-17.067-6.4-24.747s-8.96-14.080-15.36-19.627-13.653-9.813-22.187-12.8c-8.107-2.987-16.64-3.84-25.6-4.267-15.36 0.427-28.16 3.413-37.973 9.813-10.667 6.827-19.2 15.787-25.173 26.453s-10.667 23.467-12.8 37.547-3.413 28.587-3.413 42.667v11.52c0 14.933 1.28 29.013 3.413 43.093zM512 853.334c-235.52 0-426.667-191.147-426.667-426.667s191.147-426.667 426.667-426.667 426.667 191.147 426.667 426.667-191.147 426.667-426.667 426.667zM512 85.334c-188.16 0-341.333 153.173-341.333 341.333s153.173 341.333 341.333 341.333 341.333-153.173 341.333-341.333-153.173-341.333-341.333-341.333z" />
<glyph unicode="&#xe919;" glyph-name="display" d="M213.333 725.334v-597.333c0-46.933 38.4-85.333 85.333-85.333h426.667c46.933 0 85.333 38.4 85.333 85.333v597.333c0 46.933-38.4 85.333-85.333 85.333h-426.667c-46.933 0-85.333-38.4-85.333-85.333zM725.333 725.334v-597.333h-426.667v597.333h426.667z" />
<glyph unicode="&#xe91a;" glyph-name="display-touch" d="M729.6 810.667h-426.667c-46.933 0-85.333-38.4-85.333-85.333v-597.333c0-46.933 38.4-85.333 85.333-85.333h123.733l21.333-21.333c8.533-8.533 17.067-12.8 25.6-12.8h174.933c17.067 0 34.133 12.8 38.4 29.867h42.667c46.933 0 85.333 38.4 85.333 85.333v601.6c0 46.933-38.4 85.333-85.333 85.333zM729.6 128h-29.867l8.533 51.2v4.267c0 17.067-8.533 29.867-21.333 34.133l-115.2 59.733c-4.267 0-8.533 4.267-12.8 4.267h-21.333v153.6c0 21.333-17.067 38.4-38.4 38.4s-38.4-17.067-38.4-38.4v-273.067l-89.6 17.067h-4.267c-8.533 0-17.067-4.267-21.333-8.533l-21.333-21.333 17.067-21.333h-38.4v597.333h426.667v-597.333zM426.667 337.067v93.867c0 34.133 29.867 64 64 64s64-25.6 64-59.733v-93.867c29.867 21.333 51.2 55.467 51.2 93.867 0 64-51.2 115.2-115.2 115.2s-115.2-51.2-115.2-115.2c4.267-42.667 21.333-76.8 51.2-98.133z" />
<glyph unicode="&#xe91b;" glyph-name="grade" d="M512 200.534l264.533-157.867-68.267 298.667 230.4 204.8-307.2 25.6-119.467 281.6-119.467-281.6-307.2-25.6 234.667-204.8-68.267-298.667 260.267 157.867z" />
<glyph unicode="&#xe91c;" glyph-name="hits_popularity" d="M981.333 597.334c0-46.933-38.4-85.333-85.333-85.333-8.533 0-17.067 0-21.333 4.267l-153.6-153.6c0-8.533 4.267-12.8 4.267-21.333 0-46.933-38.4-85.333-85.333-85.333s-85.333 38.4-85.333 85.333c0 8.533 0 17.067 4.267 21.333l-110.933 110.933c-4.267-4.267-12.8-4.267-21.333-4.267s-17.067 0-21.333 4.267l-196.267-196.267c4.267-4.267 4.267-12.8 4.267-21.333 0-46.933-38.4-85.333-85.333-85.333s-85.333 38.4-85.333 85.333 38.4 85.333 85.333 85.333c8.533 0 12.8 0 21.333-4.267l196.267 196.267c-4.267 4.267-4.267 12.8-4.267 21.333 0 46.933 38.4 85.333 85.333 85.333s85.333-38.4 85.333-85.333c0-8.533 0-17.067-4.267-21.333l110.933-110.933c4.267 4.267 12.8 4.267 21.333 4.267s17.067 0 21.333-4.267l149.333 153.6c0 4.267 0 12.8 0 21.333 0 46.933 38.4 85.333 85.333 85.333s85.333-38.4 85.333-85.333z" />
<glyph unicode="&#xe91d;" glyph-name="in-the-news" d="M857.6 682.667h-89.6c0 46.933-38.4 85.333-85.333 85.333h-512c-46.933 0-85.333-38.4-85.333-85.333v-512c0-46.933 38.4-85.333 85.333-85.333h640c72.533 0 128 55.467 128 128v388.267c0 42.667-34.133 81.067-81.067 81.067zM298.667 170.667h-128v85.333h128v-85.333zM298.667 341.334h-128v85.333h128v-85.333zM682.667 170.667h-298.667v256h298.667v-256zM682.667 512h-512v170.667h512v-170.667zM853.333 213.334c0-25.6-21.333-42.667-42.667-42.667s-42.667 17.067-42.667 42.667v384h85.333v-384z" />
<glyph unicode="&#xe91e;" glyph-name="location" d="M512 853.334c-166.4 0-298.667-132.267-298.667-298.667 0-226.133 298.667-554.667 298.667-554.667s298.667 332.8 298.667 554.667c0 166.4-132.267 298.667-298.667 298.667zM512 448c-59.733 0-106.667 46.933-106.667 106.667s46.933 106.667 106.667 106.667 106.667-46.933 106.667-106.667-46.933-106.667-106.667-106.667z" />
<glyph unicode="&#xe91f;" glyph-name="mobile-version" d="M682.667 896h-341.333c-72.533 0-128-55.467-128-128v-682.667c0-72.533 55.467-128 128-128h341.333c72.533 0 128 55.467 128 128v682.667c0 72.533-55.467 128-128 128zM597.333 42.667h-170.667v42.667h170.667v-42.667zM738.133 170.667h-448v597.333h448v-597.333z" />
<glyph unicode="&#xe920;" glyph-name="become-a-fan" d="M512 34.134l-59.733 59.733c-221.867 196.267-366.933 328.533-366.933 490.667 0 132.267 102.4 234.667 234.667 234.667 72.533 0 145.067-34.133 192-89.6 46.933 55.467 119.467 89.6 192 89.6 132.267 0 234.667-102.4 234.667-234.667 0-162.133-145.067-294.4-366.933-490.667l-59.733-59.733z" />
<glyph unicode="&#xe921;" glyph-name="nav-menu-arrows-down" d="M298.667 512l213.333-213.333 213.333 213.333z" />
<glyph unicode="&#xe922;" glyph-name="nav-menu-arrows-left" d="M597.333 640l-213.333-213.333 213.333-213.333v426.667z" />
<glyph unicode="&#xe923;" glyph-name="nav-menu-arrows-righ" d="M426.667 213.334l213.333 213.333-213.333 213.333v-426.667z" />
<glyph unicode="&#xe924;" glyph-name="nav-menu-arrows-up" d="M298.667 341.334l213.333 213.333 213.333-213.333z" />
<glyph unicode="&#xe925;" glyph-name="next-page-arrow" d="M328.533 682.667l-59.733-59.733 196.267-196.267-196.267-196.267 59.733-59.733 256 256-256 256zM499.2 682.667l-59.733-59.733 196.267-196.267-196.267-196.267 59.733-59.733 256 256-256 256z" />
<glyph unicode="&#xe926;" glyph-name="os" d="M401.067 230.4l-196.267 196.267 196.267 196.267-59.733 59.733-256-256 256-256 59.733 59.733zM622.933 230.4l196.267 196.267-196.267 196.267 59.733 59.733 256-256-256-256-59.733 59.733z" />
<glyph unicode="&#xe927;" glyph-name="phone_finder" d="M426.667 170.667h-226.133v597.333h230.4c42.667 21.333 93.867 34.133 145.067 34.133 55.467 0 106.667-12.8 149.333-34.133 0 72.533-55.467 128-128 128h-341.333c-72.533 0-128-55.467-128-128v-682.667c0-72.533 55.467-128 128-128h341.333c72.533 0 128 55.467 128 128v81.067c-46.933-21.333-98.133-29.867-149.333-29.867-55.467 0-102.4 12.8-149.333 34.133zM512 42.667h-170.667v42.667h170.667v-42.667zM823.467 290.134h-29.867l-8.533 8.533c38.4 42.667 59.733 102.4 59.733 162.133 0 136.533-110.933 247.467-247.467 247.467s-247.467-110.933-247.467-247.467 110.933-247.467 247.467-247.467c59.733 0 119.467 21.333 162.133 59.733l8.533-8.533v-29.867l119.467-119.467 55.467 55.467-119.467 119.467zM593.067 290.134c-93.867 0-170.667 76.8-170.667 170.667s76.8 170.667 170.667 170.667 170.667-76.8 170.667-170.667c4.267-89.6-72.533-170.667-170.667-170.667z" />
<glyph unicode="&#xe928;" glyph-name="weight-and-thickness_mobile-ver_specs" d="M682.667 896h-341.333c-72.533 0-128-55.467-128-128v-682.667c0-72.533 55.467-128 128-128h341.333c72.533 0 128 55.467 128 128v682.667c0 72.533-55.467 128-128 128zM597.333 42.667h-170.667v42.667h170.667v-42.667zM738.133 170.667h-448v597.333h448v-597.333z" />
<glyph unicode="&#xe929;" glyph-name="read" d="M512 746.667c-213.333 0-396.8-132.267-469.333-320 72.533-187.733 256-320 469.333-320s396.8 132.267 469.333 320c-72.533 187.733-256 320-469.333 320zM512 213.334c-119.467 0-213.333 93.867-213.333 213.333s93.867 213.333 213.333 213.333 213.333-93.867 213.333-213.333-93.867-213.333-213.333-213.333zM512 554.667c-72.533 0-128-55.467-128-128s55.467-128 128-128 128 55.467 128 128-55.467 128-128 128z" />
<glyph unicode="&#xe92a;" glyph-name="short-review" d="M332.8 793.6l-51.2 64-196.267-162.133 55.467-64zM938.667 695.467l-196.267 166.4-55.467-64 196.267-166.4zM512 768c-213.333 0-384-170.667-384-384s170.667-384 384-384 384 170.667 384 384-174.933 384-384 384zM452.267 230.4l-136.533 132.267 42.667 46.933 93.867-89.6 209.067 209.067 46.933-42.667-256-256z" />
<glyph unicode="&#xe92b;" glyph-name="pictures" d="M896 128v597.333c0 46.933-38.4 85.333-85.333 85.333h-597.333c-46.933 0-85.333-38.4-85.333-85.333v-597.333c0-46.933 38.4-85.333 85.333-85.333h597.333c46.933 0 85.333 38.4 85.333 85.333zM362.667 362.667l106.667-128 149.333 192 192-256h-597.333l149.333 192z" />
<glyph unicode="&#xe92c;" glyph-name="compare" d="M426.667 810.667h-213.333c-46.933 0-85.333-38.4-85.333-85.333v-597.333c0-46.933 38.4-85.333 85.333-85.333h213.333v-85.333h85.333v938.667h-85.333v-85.333zM426.667 170.667h-213.333l213.333 256v-256zM810.667 810.667h-213.333v-85.333h213.333v-554.667l-213.333 256v-384h213.333c46.933 0 85.333 38.4 85.333 85.333v597.333c0 46.933-38.4 85.333-85.333 85.333z" />
<glyph unicode="&#xe92d;" glyph-name="check_mark" d="M512 853.334c-235.52 0-426.667-191.147-426.667-426.667s191.147-426.667 426.667-426.667 426.667 191.147 426.667 426.667-191.147 426.667-426.667 426.667zM426.667 213.334l-213.333 213.333 60.16 60.16 153.173-152.747 323.84 323.84 60.16-60.587-384-384z" />
<glyph unicode="&#xe92e;" glyph-name="posts-user" d="M512 853.334c-234.667 0-426.667-192-426.667-426.667s192-426.667 426.667-426.667 426.667 192 426.667 426.667-192 426.667-426.667 426.667zM708.267 281.6l-196.267 196.267-196.267-196.267-59.733 59.733 256 256 256-256-59.733-59.733z" />
<glyph unicode="&#xe92f;" glyph-name="comments_opinions_posts" d="M938.24 768c0 46.933-37.973 85.333-84.907 85.333h-682.667c-46.933 0-85.333-38.4-85.333-85.333v-512c0-46.933 38.4-85.333 85.333-85.333h597.333l170.667-170.667-0.427 768zM768 341.334h-512v85.333h512v-85.333zM768 469.334h-512v85.333h512v-85.333zM768 597.334h-512v85.333h512v-85.333z" />
<glyph unicode="&#xe930;" glyph-name="rate-down" d="M316.16 604.16l195.84-195.413 195.84 195.413 60.16-60.16-256-256-256 256z" />
<glyph unicode="&#xe931;" glyph-name="rate-up" d="M315.733 281.6l196.267 196.267 196.267-196.267 59.733 59.733-256 256-256-256 59.733-59.733z" />
<glyph unicode="&#xe932;" glyph-name="read-more" d="M170.667 298.667h682.667v85.333h-682.667v-85.333zM170.667 128h682.667v85.333h-682.667v-85.333zM170.667 469.334h682.667v85.333h-682.667v-85.333zM170.667 725.334v-85.333h682.667v85.333h-682.667z" />
<glyph unicode="&#xe933;" glyph-name="refine" d="M128 213.334v-85.333h256v85.333h-256zM128 725.334v-85.333h426.667v85.333h-426.667zM554.667 42.667v85.333h341.333v85.333h-341.333v85.333h-85.333v-256h85.333zM298.667 554.667v-85.333h-170.667v-85.333h170.667v-85.333h85.333v256h-85.333zM896 384v85.333h-426.667v-85.333h426.667zM640 554.667h85.333v85.333h170.667v85.333h-170.667v85.333h-85.333v-256z" />
<glyph unicode="&#xe934;" glyph-name="reply" d="M597.333 554.667v170.667l298.667-298.667-298.667-298.667v174.933c-213.333 0-362.667-68.267-469.333-217.6 42.667 213.333 170.667 426.667 469.333 469.333z" />
<glyph unicode="&#xe935;" glyph-name="reply-to-this-post" d="M298.667 597.334v128l-298.667-298.667 298.667-298.667v128l-170.667 170.667 170.667 170.667zM554.667 554.667v170.667l-298.667-298.667 298.667-298.667v174.933c213.333 0 362.667-68.267 469.333-217.6-42.667 213.333-170.667 426.667-469.333 469.333z" />
<glyph unicode="&#xe936;" glyph-name="info" d="M512 853.334c-234.667 0-426.667-192-426.667-426.667s192-426.667 426.667-426.667 426.667 192 426.667 426.667-192 426.667-426.667 426.667zM554.667 213.334h-85.333v256h85.333v-256zM554.667 554.667h-85.333v85.333h85.333v-85.333z" />
<glyph unicode="&#xe937;" glyph-name="report" d="M42.667 42.667h938.667l-469.333 810.667-469.333-810.667zM554.667 170.667h-85.333v85.333h85.333v-85.333zM554.667 341.334h-85.333v170.667h85.333v-170.667z" />
<glyph unicode="&#xe938;" glyph-name="rumor-mill" d="M789.618 426.667c0 68.267-40.96 127.431-95.573 154.738v-314.027c59.165 31.858 95.573 91.022 95.573 159.289zM694.045 768v-81.92c113.778-31.858 195.698-136.533 195.698-259.413s-81.92-227.555-195.698-259.413v-81.92c154.738 36.409 273.067 172.942 273.067 341.333s-118.329 304.925-273.067 341.333zM97.849 504.036c0 0-45.511-18.205-45.511-77.369 0-54.613 45.511-72.818 45.511-72.818v150.187zM125.155 513.138v-172.942l477.867-232.107v637.155z" />
<glyph unicode="&#xe939;" glyph-name="all-brands" d="M183.467 490.667c-34.133 0-64-29.867-64-64s29.867-64 64-64 64 29.867 64 64-29.867 64-64 64zM183.467 746.667c-34.133 0-64-29.867-64-64s29.867-64 64-64 64 29.867 64 64-29.867 64-64 64zM183.467 234.667c-34.133 0-64-29.867-64-64s29.867-64 64-64 64 29.867 64 64-29.867 64-64 64zM311.467 128h597.333v85.333h-597.333v-85.333zM311.467 384h597.333v85.333h-597.333v-85.333zM311.467 725.334v-85.333h597.333v85.333h-597.333z" />
<glyph unicode="&#xe93a;" glyph-name="search" d="M661.333 341.334h-34.133l-12.8 12.8c42.667 46.933 68.267 110.933 68.267 179.2 0 153.6-123.733 277.333-277.333 277.333s-277.333-123.733-277.333-277.333 123.733-277.333 277.333-277.333c68.267 0 132.267 25.6 179.2 68.267l12.8-12.8v-34.133l213.333-213.333 64 64-213.333 213.333zM405.333 341.334c-106.667 0-192 85.333-192 192s85.333 192 192 192 192-85.333 192-192-85.333-192-192-192z" />
<glyph unicode="&#xe93b;" glyph-name="time" d="M511.573 853.334c-235.52 0-426.24-191.147-426.24-426.667s190.72-426.667 426.24-426.667c235.947 0 427.093 191.147 427.093 426.667s-191.147 426.667-427.093 426.667zM512 85.334c-188.587 0-341.333 152.747-341.333 341.333s152.747 341.333 341.333 341.333 341.333-152.747 341.333-341.333-152.747-341.333-341.333-341.333zM533.333 640h-64v-256l224-134.4 32 52.48-192 113.92z" />
<glyph unicode="&#xe93c;" glyph-name="user-review_upvotes" d="M597.333 554.667c93.867 0 170.667 76.8 170.667 170.667s-76.8 170.667-170.667 170.667-170.667-76.8-170.667-170.667 76.8-170.667 170.667-170.667zM597.333 426.667c-25.6 0-51.2-4.267-81.067-8.533l8.533-25.6 307.2-25.6-230.4-196.267h337.067v85.333c0 115.2-226.133 170.667-341.333 170.667zM405.333 76.8l196.267-119.467-51.2 226.133 174.933 149.333-230.4 21.333-89.6 213.333-89.6-213.333-230.4-17.067 174.933-149.333-51.2-230.4 196.267 119.467z" />
<glyph unicode="&#xe93d;" glyph-name="x-hours-ago" d="M512 853.334c-234.667 0-426.667-192-426.667-426.667s192-426.667 426.667-426.667 426.667 192 426.667 426.667-192 426.667-426.667 426.667zM691.2 247.467l-221.867 136.533v256h64v-221.867l192-115.2-34.133-55.467z" />
<glyph unicode="&#xe93e;" glyph-name="check-prices" d="M341.333 170.667c-46.933 0-85.333-38.4-85.333-85.333s38.4-85.333 85.333-85.333 85.333 38.4 85.333 85.333-38.4 85.333-85.333 85.333zM85.333 853.334v-85.333h85.333l153.6-324.267-55.467-102.4c-8.533-12.8-12.8-25.6-12.8-42.667 0-46.933 38.4-85.333 85.333-85.333h512v85.333h-494.933c-4.267 0-12.8 4.267-12.8 12.8v4.267l42.667 68.267h315.733c29.867 0 59.733 17.067 72.533 42.667l153.6 277.333c8.533 8.533 8.533 12.8 8.533 21.333 0 25.6-21.333 42.667-42.667 42.667h-631.467l-38.4 85.333h-140.8zM768 170.667c-46.933 0-85.333-38.4-85.333-85.333s38.4-85.333 85.333-85.333 85.333 38.4 85.333 85.333-38.4 85.333-85.333 85.333z" />
<glyph unicode="&#xe93f;" glyph-name="post-your-comment" d="M896 682.667h-85.333v-384h-554.667v-85.333c0-21.333 17.067-42.667 42.667-42.667h469.333l170.667-170.667v640c0 25.6-21.333 42.667-42.667 42.667zM725.333 426.667v384c0 21.333-21.333 42.667-42.667 42.667h-554.667c-21.333 0-42.667-21.333-42.667-42.667v-597.333l170.667 170.667h426.667c21.333 0 42.667 17.067 42.667 42.667z" />
<glyph unicode="&#xe940;" glyph-name="check-mark-sircle-fill" d="M512 853.334c-234.667 0-426.667-192-426.667-426.667s192-426.667 426.667-426.667 426.667 192 426.667 426.667-192 426.667-426.667 426.667zM512 320c-59.733 0-106.667 46.933-106.667 106.667s46.933 106.667 106.667 106.667 106.667-46.933 106.667-106.667-46.933-106.667-106.667-106.667z" />
<glyph unicode="&#xe941;" glyph-name="check-mark-square-fill" d="M797.867 810.667h-576c-51.2 0-93.867-42.667-93.867-98.133v-576c0-51.2 42.667-93.867 93.867-93.867h576c51.2 0 98.133 42.667 98.133 98.133v571.733c0 55.467-42.667 98.133-98.133 98.133zM426.667 213.334l-213.333 213.333 59.733 59.733 153.6-153.6 324.267 324.267 59.733-59.733-384-384z" />
<glyph unicode="&#xe942;" glyph-name="close" d="M832 682.21l-64.457 64.457-255.543-255.543-255.543 255.543-64.457-64.457 255.543-255.543-255.543-255.543 64.457-64.457 255.543 255.543 255.543-255.543 64.457 64.457-255.543 255.543z" />
<glyph unicode="&#xe943;" glyph-name="gallery_arrow_left" d="M657.067 622.934l-59.733 59.733-256-256 256-256 59.733 59.733-196.267 196.267 196.267 196.267z" />
<glyph unicode="&#xe944;" glyph-name="gallery-arroe-right" d="M426.667 682.667l-59.733-59.733 196.267-196.267-196.267-196.267 59.733-59.733 256 256-256 256z" />
<glyph unicode="&#xe945;" glyph-name="gallery-arrow-small-down" d="M512 128l294.4 473.6h-597.333l302.933-473.6z" />
<glyph unicode="&#xe946;" glyph-name="gallery-arrow-small-up" d="M209.067 256h597.333l-294.4 473.6-302.933-473.6z" />
<glyph unicode="&#xe947;" glyph-name="zoom-in" d="M678.399 331.582h-38.033l-14.262 14.262c47.543 52.297 76.069 123.611 76.069 199.68 0 171.154-137.873 309.029-309.029 309.029s-309.029-137.873-309.029-309.029 137.873-309.029 309.029-309.029c76.069 0 147.383 28.526 199.68 76.069l14.262-14.262v-38.033l237.713-237.713 71.314 71.314-237.713 237.713zM393.143 331.582c-118.857 0-213.942 95.085-213.942 213.942s95.085 213.942 213.942 213.942 213.942-95.085 213.942-213.942-95.085-213.942-213.942-213.942zM512 521.752h-95.085v-95.085h-47.543v95.085h-95.085v47.543h95.085v95.085h47.543v-95.085h95.085v-47.543z" />
<glyph unicode="&#xe948;" glyph-name="zoom-out" d="M678.409 331.576h-37.561l-13.313 12.838c46.595 54.202 74.647 124.569 74.647 201.118 0 170.689-138.358 309.047-309.047 309.047s-309.047-138.358-309.047-309.047 138.358-309.047 309.047-309.047c76.549 0 146.916 28.051 201.118 74.647l12.838-13.313v-37.561l237.727-237.253 70.843 70.843-237.253 237.727zM393.135 331.576c-118.388 0-213.956 95.566-213.956 213.956s95.566 213.956 213.956 213.956 213.956-95.566 213.956-213.956-95.566-213.956-213.956-213.956zM274.273 569.303h237.727v-47.547h-237.727z" />
<glyph unicode="&#xe949;" glyph-name="share" d="M742.272 269.316c-30.703 0-53.729-11.514-76.757-30.703l-272.487 161.19c3.839 7.675 3.839 19.189 3.839 26.865s0 19.189-3.839 26.865l272.487 157.351c19.189-19.189 46.054-30.703 76.757-30.703 65.243 0 115.136 49.893 115.136 115.136s-49.893 115.136-115.136 115.136-115.136-49.893-115.136-115.136c0-7.675 0-19.189 3.839-26.865l-272.487-157.351c-19.189 19.189-46.054 30.703-76.757 30.703-65.243 0-115.136-49.893-115.136-115.136s49.893-115.136 115.136-115.136c30.703 0 57.568 11.514 76.757 30.703l272.487-161.19c-3.839-7.675-3.839-15.351-3.839-23.028 0-61.406 49.893-111.297 111.297-111.297s111.297 49.893 111.297 111.297-46.054 111.297-107.461 111.297z" />
<glyph unicode="&#xe94a;" glyph-name="gallery-fullscreen" d="M298.667 341.334h-85.333v-213.333h213.333v85.333h-128v128zM213.333 512h85.333v128h128v85.333h-213.333v-213.333zM725.333 213.334h-128v-85.333h213.333v213.333h-85.333v-128zM597.333 725.334v-85.333h128v-128h85.333v213.333h-213.333z" />
<glyph unicode="&#xe94b;" glyph-name="gallery-fullscreen-exit" d="M213.333 256h128v-128h85.333v213.333h-213.333v-85.333zM341.333 597.334h-128v-85.333h213.333v213.333h-85.333v-128zM597.333 128h85.333v128h128v85.333h-213.333v-213.333zM682.667 597.334v128h-85.333v-213.333h213.333v85.333h-128z" />
<glyph unicode="&#xe94c;" glyph-name="comments_opinions_posts-line" d="M85.333 768v-512c0-46.933 38.4-85.333 85.333-85.333h597.333l170.667-170.667v768c0 46.933-38.4 85.333-85.333 85.333h-682.667c-46.933 0-85.333-38.4-85.333-85.333zM170.667 768h682.667v-597.333l-85.333 85.333h-597.333v512z" />
<glyph unicode="&#xe94d;" glyph-name="comments_post_opinons_fill" d="M85.333 768v-512c0-46.933 38.4-85.333 85.333-85.333h597.333l170.667-170.667v768c0 46.933-38.4 85.333-85.333 85.333h-682.667c-46.933 0-85.333-38.4-85.333-85.333z" />
<glyph unicode="&#xe94e;" glyph-name="amazon" d="M832 153.6c-8.533 17.067-46.933 0-81.067-12.8s-136.533-55.467-285.867-55.467-298.667 106.667-332.8 128c-34.133 21.333-42.667 0-42.667 0s-8.533-17.067 21.333-55.467c29.867-38.4 179.2-157.867 366.933-157.867 153.6 0 217.6 34.133 285.867 68.267 64 38.4 76.8 68.267 68.267 85.333v0zM930.133 230.4c-29.867 46.933-157.867-4.267-166.4-12.8-8.533-4.267-8.533-12.8-8.533-12.8s-4.267-17.067 38.4-12.8c42.667 4.267 59.733 8.533 72.533 0 12.8-12.8 8.533-34.133 0-59.733s-29.867-46.933-8.533-59.733c21.333-12.8 110.933 98.133 72.533 157.867v0zM742.4 345.6c-4.267 4.267-8.533 12.8-17.067 21.333-21.333 29.867-21.333 51.2-21.333 51.2v268.8c0 34.133-21.333 162.133-221.867 162.133-166.4 4.267-217.6-115.2-230.4-162.133 0-4.267 4.267-12.8 12.8-17.067l102.4-17.067c4.267 0 12.8 0 17.067 8.533 12.8 21.333 42.667 81.067 98.133 81.067 64 0 68.267-51.2 68.267-51.2v-59.733c0-8.533-8.533-12.8-12.8-12.8-25.6-4.267-76.8-4.267-153.6-21.333-110.933-21.333-162.133-123.733-162.133-204.8s76.8-170.667 192-170.667c85.333 0 136.533 51.2 153.6 76.8 4.267 4.267 12.8 4.267 17.067 0 4.267-8.533 12.8-17.067 21.333-25.6 8.533-12.8 21.333-21.333 29.867-29.867s21.333-8.533 34.133 0l76.8 72.533c4.267 8.533 4.267 21.333-4.267 29.867zM550.4 435.2c0-42.667-29.867-76.8-68.267-85.333-8.533-4.267-21.333-4.267-34.133-4.267-85.333 0-68.267 110.933-29.867 145.067 29.867 25.6 89.6 34.133 119.467 34.133 8.533 0 12.8-4.267 12.8-12.8v-76.8z" />
<glyph unicode="&#xe94f;" glyph-name="related-phones" d="M853.807 280.178c-9.766 0-24.415 0-34.181-4.883l-200.201 341.807c24.415 29.298 39.064 63.479 39.064 102.542 0 83.010-63.479 146.489-146.489 146.489s-146.489-63.479-146.489-146.489c0-39.064 14.649-73.244 39.064-97.659l-205.084-346.689c-9.766 0-19.532 4.883-29.298 4.883-83.010-4.883-146.489-68.361-146.489-146.489s63.479-141.605 141.605-141.605c63.479 0 112.308 39.064 131.84 92.776h415.052c19.532-58.596 73.244-97.659 136.723-97.659 83.010 0 146.489 63.479 146.489 146.489 4.883 83.010-63.479 146.489-141.605 146.489zM477.819 578.039c9.766-4.883 19.532-4.883 34.181-4.883 9.766 0 24.415 0 34.181 4.883l200.201-341.807c-14.649-19.532-29.298-39.064-34.181-63.479h-405.285c-4.883 24.415-19.532 43.947-34.181 58.596l205.084 346.689z" />
<glyph unicode="&#xe950;" glyph-name="grade_negative" d="M0 938.667v-1024h1024v1024h-1024zM776.533 42.667l-264.533 157.867-260.267-157.867 68.267 298.667-234.667 204.8 307.2 25.6 119.467 281.6 119.467-281.6 307.2-25.6-230.4-204.8 68.267-298.667z" />
<glyph unicode="&#xe951;" glyph-name="grade_negative_half" d="M512 853.334v85.333h-512v-1024h512v285.867l-260.267-157.867 68.267 298.667-234.667 204.8 307.2 25.6z" />
<glyph unicode="&#xe952;" glyph-name="ic_open_in_new_black_24px" d="M810.667 128h-597.333v597.333h298.667v85.333h-298.667c-46.933 0-85.333-38.4-85.333-85.333v-597.333c0-46.933 38.4-85.333 85.333-85.333h597.333c46.933 0 85.333 38.4 85.333 85.333v298.667h-85.333v-298.667zM597.333 810.667v-85.333h153.6l-418.133-418.133 59.733-59.733 418.133 418.133v-153.6h85.333v298.667h-298.667z" />
<glyph unicode="&#xe953;" glyph-name="grade-half-positive" d="M512 200.534l264.533-157.867-68.267 298.667 230.4 204.8-307.2 25.6-119.467 281.6z" />
<glyph unicode="&#xe954;" glyph-name="grade-lefthalf-positive" d="M512 200.534v652.8l-119.467-281.6-307.2-25.6 234.667-204.8-68.267-298.667z" />
<glyph unicode="&#xe955;" glyph-name="lock" d="M939.52 938.667h-855.040c-46.080 0-84.48-38.4-84.48-84.48v-852.48c0-48.64 38.4-87.040 84.48-87.040h852.48c46.080 0 84.48 38.4 84.48 84.48v855.040c2.56 46.080-35.84 84.48-81.92 84.48zM939.52-0.853h-855.040v855.040h852.48v-855.040zM332.8 98.987h358.4c33.28 0 58.88 25.6 58.88 58.88v299.52c0 33.28-25.6 58.88-58.88 58.88h-30.72v58.88c0 81.92-66.56 148.48-148.48 148.48s-148.48-66.56-148.48-148.48v-58.88h-30.72c-33.28 0-58.88-25.6-58.88-58.88v-296.96c0-33.28 25.6-61.44 58.88-61.44zM419.84 575.147c0 51.2 40.96 92.16 92.16 92.16s92.16-40.96 92.16-92.16v-58.88h-184.32v58.88z" />
<glyph unicode="&#xe956;" glyph-name="unlock" d="M939.52 938.667h-855.040c-46.080 0-84.48-38.4-84.48-84.48v-852.48c0-48.64 38.4-87.040 84.48-87.040h852.48c46.080 0 84.48 38.4 84.48 84.48v855.040c2.56 46.080-35.84 84.48-81.92 84.48zM939.52-0.853h-855.040v855.040h852.48v-855.040h2.56zM691.2 516.267h-271.36v89.6c0 51.2 40.96 92.16 92.16 92.16s92.16-40.96 92.16-92.16v-12.8h56.32v12.8c0 81.92-66.56 148.48-148.48 148.48s-148.48-66.56-148.48-148.48v-87.040h-30.72c-33.28 0-58.88-28.16-58.88-58.88v-296.96c0-35.84 25.6-64 58.88-64h358.4c33.28 0 58.88 25.6 58.88 58.88v299.52c0 33.28-28.16 58.88-58.88 58.88z" />
<glyph unicode="&#xe957;" glyph-name="become-a-fan-outline" d="M704 810.667c-72.533 0-145.067-34.133-192-89.6-46.933 55.467-119.467 89.6-192 89.6-132.267 0-234.667-102.4-234.667-234.667 0-162.133 145.067-294.4 366.933-490.667l59.733-55.467 59.733 55.467c221.867 200.533 366.933 332.8 366.933 490.667 0 132.267-102.4 234.667-234.667 234.667zM516.267 149.334l-4.267-4.267-4.267 4.267c-204.8 183.467-337.067 302.933-337.067 426.667 0 85.333 64 149.333 149.333 149.333 64 0 128-42.667 153.6-102.4h81.067c21.333 59.733 85.333 102.4 149.333 102.4 85.333 0 149.333-64 149.333-149.333 0-123.733-132.267-243.2-337.067-426.667z" />
<glyph unicode="&#xe958;" glyph-name="instagram" d="M512 742.4c102.4 0 115.2 0 153.6-4.267 38.4 0 59.733-8.533 72.533-12.8 17.067-8.533 29.867-17.067 42.667-29.867s21.333-25.6 29.867-42.667c4.267-12.8 12.8-34.133 12.8-72.533s4.267-51.2 4.267-153.6 0-115.2-4.267-153.6c0-38.4-8.533-59.733-12.8-72.533-8.533-17.067-17.067-29.867-29.867-42.667s-25.6-21.333-42.667-29.867c-12.8-4.267-34.133-12.8-72.533-12.8s-51.2-4.267-153.6-4.267-115.2 0-153.6 4.267c-38.4 0-59.733 8.533-72.533 12.8-17.067 8.533-29.867 17.067-42.667 29.867s-21.333 25.6-29.867 42.667c-4.267 12.8-12.8 34.133-12.8 72.533s-4.267 51.2-4.267 153.6 0 115.2 4.267 153.6c0 38.4 8.533 59.733 12.8 72.533 8.533 17.067 17.067 29.867 29.867 42.667 12.8 17.067 25.6 25.6 42.667 29.867 12.8 4.267 34.133 12.8 72.533 12.8 38.4 4.267 51.2 4.267 153.6 4.267zM512 810.667c-102.4 0-119.467 0-157.867-4.267-42.667 0-68.267-8.533-93.867-17.067s-46.933-21.333-68.267-42.667c-21.333-21.333-34.133-42.667-42.667-68.267s-17.067-51.2-17.067-93.867c-4.267-38.4-4.267-55.467-4.267-157.867s0-119.467 4.267-157.867c0-42.667 8.533-68.267 17.067-93.867s21.333-46.933 42.667-68.267c21.333-21.333 42.667-34.133 68.267-42.667s51.2-17.067 93.867-17.067c42.667 0 55.467-4.267 157.867-4.267s119.467 0 157.867 4.267c42.667 0 68.267 8.533 93.867 17.067s46.933 21.333 68.267 42.667c21.333 21.333 34.133 42.667 42.667 68.267s17.067 51.2 17.067 93.867c0 42.667 4.267 55.467 4.267 157.867s0 119.467-4.267 157.867c0 42.667-8.533 68.267-17.067 93.867s-21.333 46.933-42.667 68.267c-21.333 21.333-42.667 34.133-68.267 42.667s-51.2 17.067-93.867 17.067c-38.4 4.267-55.467 4.267-157.867 4.267v0zM512 622.934c-110.933 0-196.267-89.6-196.267-196.267 0-110.933 89.6-196.267 196.267-196.267s196.267 89.6 196.267 196.267c0 110.933-85.333 196.267-196.267 196.267zM512 298.667c-72.533 0-128 55.467-128 128s55.467 128 128 128c72.533 0 128-55.467 128-128s-55.467-128-128-128zM763.733 631.467c0-25.921-21.013-46.933-46.933-46.933s-46.933 21.013-46.933 46.933c0 25.921 21.013 46.933 46.933 46.933s46.933-21.013 46.933-46.933z" />
<glyph unicode="&#xe959;" glyph-name="desktop-version" d="M896 853.334h-768c-46.933 0-85.333-38.4-85.333-85.333v-512c0-46.933 38.4-85.333 85.333-85.333h298.667v-85.333h-85.333v-85.333h341.333v85.333h-85.333v85.333h298.667c46.933 0 85.333 38.4 85.333 85.333v512c0 46.933-38.4 85.333-85.333 85.333zM896 256h-768v512h768v-512z" />
<glyph unicode="&#xe95a;" glyph-name="grade-lefthalf-outline" d="M938.667 546.134l-307.2 25.6-119.467 281.6v-174.933l72.533-170.667 187.733-17.067-140.8-123.733 42.667-183.467-162.133 98.133v-81.067l264.533-157.867-72.533 298.667z" />
<glyph unicode="&#xe95b;" glyph-name="grade-outline" d="M938.667 546.134l-307.2 25.6-119.467 281.6-119.467-281.6-307.2-25.6 234.667-204.8-68.267-298.667 264.533 157.867 264.533-157.867-68.267 298.667 226.133 204.8zM512 281.6l-162.133-98.133 42.667 183.467-140.8 123.733 187.733 17.067 72.533 170.667 72.533-170.667 187.733-17.067-140.8-123.733 42.667-183.467-162.133 98.133z" />
<glyph unicode="&#xe95c;" glyph-name="grade-righthalf-outline" d="M85.333 546.134l307.2 25.6 119.467 281.6v-174.933l-72.533-170.667-187.733-17.067 140.8-123.733-42.667-183.467 162.133 98.133v-81.067l-264.533-157.867 72.533 298.667z" />
<glyph unicode="&#xe95d;" glyph-name="prices" d="M503.467 473.6c-98.133 25.6-128 51.2-128 89.6 0 46.933 42.667 76.8 115.2 76.8 76.8 0 102.4-34.133 106.667-89.6h93.867c-4.267 72.533-46.933 140.8-136.533 162.133v98.133h-128v-93.867c-81.067-17.067-149.333-68.267-149.333-153.6 0-98.133 81.067-149.333 200.533-174.933 106.667-25.6 128-64 128-102.4 0-29.867-21.333-76.8-115.2-76.8-89.6 0-123.733 38.4-128 89.6h-93.867c4.267-93.867 76.8-145.067 157.867-162.133v-93.867h128v89.6c81.067 17.067 149.333 64 149.333 153.6 0 119.467-102.4 162.133-200.533 187.733z" />
<glyph unicode="&#xe95e;" glyph-name="info-outline" d="M469.333 640h85.333v-85.333h-85.333v85.333zM469.333 469.334h85.333v-256h-85.333v256zM512 853.334c-234.667 0-426.667-192-426.667-426.667s192-426.667 426.667-426.667 426.667 192 426.667 426.667-192 426.667-426.667 426.667zM512 85.334c-187.733 0-341.333 153.6-341.333 341.333s153.6 341.333 341.333 341.333 341.333-153.6 341.333-341.333-153.6-341.333-341.333-341.333z" />
<glyph unicode="&#xe95f;" glyph-name="minus" d="M512 810.667c-213.333 0-384-170.667-384-384s170.667-384 384-384c213.333 0 384 170.667 384 384s-170.667 384-384 384zM512 128c-166.4 0-298.667 132.267-298.667 298.667s132.267 298.667 298.667 298.667 298.667-132.267 298.667-298.667-132.267-298.667-298.667-298.667zM469.333 469.334h-128v-85.333h341.333v85.333h-213.333z" />
<glyph unicode="&#xe960;" glyph-name="plus" d="M512 810.667c-213.333 0-384-170.667-384-384s170.667-384 384-384c213.333 0 384 170.667 384 384s-170.667 384-384 384zM512 128c-166.4 0-298.667 132.267-298.667 298.667s132.267 298.667 298.667 298.667 298.667-132.267 298.667-298.667-132.267-298.667-298.667-298.667zM554.667 597.334h-85.333v-128h-128v-85.333h128v-128h85.333v128h128v85.333h-128v128z" />
<glyph unicode="&#xe961;" glyph-name="google-play" d="M247.467 844.8c-4.267 0-4.267 0-8.533 0 0 0-4.267 0-4.267 0s0 0 0 0 0 0-4.267 0-8.533 0-8.533-4.267-8.533-8.533-8.533-8.533c-12.8-8.533-21.333-25.6-21.333-42.667v-729.6c0-17.067 8.533-34.133 25.6-42.667 0 0 4.267 0 4.267 0s0 0 4.267 0c17.067-4.267 29.867 0 42.667 4.267 0 0 0 0 0 0 12.8 8.533 302.933 183.467 302.933 183.467l153.6 93.867c0 0 128 76.8 145.067 89.6 12.8 8.533 29.867 25.6 29.867 46.933s-12.8 34.133-29.867 42.667c-4.267 4.267-42.667 25.6-76.8 46.933-38.4 17.067-68.267 34.133-68.267 34.133s0 0-4.267 0l-153.6 93.867c0 0-277.333 170.667-294.4 179.2-8.533 4.267-17.067 8.533-25.6 12.8zM256 742.4l302.933-315.733-302.933-311.467v627.2zM409.6 674.134c55.467-34.133 123.733-76.8 123.733-76.8l119.467-72.533-51.2-51.2-192 200.533zM708.267 494.934c12.8-8.533 25.6-12.8 46.933-29.867 25.6-17.067 46.933-25.6 59.733-34.133-29.867-17.067-85.333-51.2-106.667-64l-59.733 59.733 59.733 68.267zM601.6 379.734l51.2-51.2-119.467-72.533c0 0-68.267-42.667-128-76.8l196.267 200.533z" />
<glyph unicode="&#xe962;" glyph-name="notification" d="M512-0c46.933 0 85.333 38.4 85.333 85.333h-170.667c0-46.933 38.4-85.333 85.333-85.333zM768 256v213.333c0 132.267-68.267 238.933-192 268.8v29.867c0 34.133-29.867 64-64 64s-64-29.867-64-64v-29.867c-123.733-29.867-192-136.533-192-268.8v-213.333l-85.333-85.333v-42.667h682.667v42.667l-85.333 85.333z" />
<glyph unicode="&#xe963;" d="M951.467 661.334c0-129.603-105.064-234.667-234.667-234.667s-234.667 105.064-234.667 234.667c0 129.603 105.064 234.667 234.667 234.667s234.667-105.064 234.667-234.667z" />
<glyph unicode="&#xe964;" d="M704 503.467v234.667h-29.867v46.933c4.267 0 42.667 29.867 42.667 34.133h46.933v-315.733h-59.733z" />
<glyph unicode="&#xe965;" glyph-name="play" d="M370.394 765.089v-632.555l456.979 306.656zM419.356 670.257l322.119-229.864-322.119-216.121zM511.954-64.002c-282.492 0-511.954 229.473-511.954 511.954s229.462 512.126 511.954 512.126c282.492 0 512.126-229.646 512.126-512.126s-229.634-511.954-512.126-511.954zM511.954-15.040c256.057 0 463.164 206.949 463.164 462.992s-207.107 463.164-463.164 463.164c-256.057 0-462.992-207.122-462.992-463.164s206.935-462.992 462.992-462.992z" />
<glyph unicode="&#xe966;" glyph-name="pause" d="M511.954 960.078c-282.48 0-511.954-229.646-511.954-512.126s229.474-511.954 511.954-511.954c282.48 0 512.126 229.474 512.126 511.954s-229.646 512.126-512.126 512.126zM511.954 911.116c256.044 0 463.164-207.12 463.164-463.164s-207.12-462.992-463.164-462.992c-256.044 0-462.992 206.949-462.992 462.992s206.948 463.164 462.992 463.164zM348.060 642.426v-390.494h113.901v390.494zM370.394 620.265h69.234v-345.999h-69.234zM561.947 643.972v-390.494h114.073v390.494zM584.281 621.811h69.406v-345.999h-69.406zM348.060 642.426h113.901v-390.494h-113.901v390.494zM561.947 643.972h114.073v-390.494h-114.073v390.494z" />
<glyph unicode="&#xe967;" glyph-name="previous" d="M779.613 761.825l-38.654-26.972-423.994-296.349 462.649-304.424zM730.48 667.68v-442.72l-326.070 214.745zM244.467 727.466v-584.968h48.962v584.968z" />
<glyph unicode="&#xe968;" glyph-name="next" d="M244.467 761.825v-627.745l462.649 304.424zM293.429 667.68l326.242-227.974-326.242-214.745zM730.48 727.466v-584.968h49.134v584.968z" />
<glyph unicode="&#xe969;" glyph-name="headphones" d="M288 384h-64v-448h64c17.6 0 32 14.4 32 32v384c0 17.6-14.4 32-32 32zM736 384c-17.602 0-32-14.4-32-32v-384c0-17.6 14.398-32 32-32h64v448h-64zM1024 448c0 282.77-229.23 512-512 512s-512-229.23-512-512c0-61.412 10.83-120.29 30.656-174.848-19.478-33.206-30.656-71.87-30.656-113.152 0-112.846 83.448-206.188 192-221.716v443.418c-31.914-4.566-61.664-15.842-87.754-32.378-5.392 26.718-8.246 54.364-8.246 82.676 0 229.75 186.25 416 416 416s416-186.25 416-416c0-28.314-2.83-55.968-8.22-82.696-26.1 16.546-55.854 27.848-87.78 32.418v-443.44c108.548 15.532 192 108.874 192 221.714 0 41.274-11.178 79.934-30.648 113.138 19.828 54.566 30.648 113.452 30.648 174.866z" />
<glyph unicode="&#xe96a;" glyph-name="volume-medium" d="M719.53 128.47c-12.286 0-24.566 4.686-33.942 14.056-18.744 18.744-18.744 49.136 0 67.882 131.006 131.006 131.006 344.17 0 475.176-18.744 18.746-18.744 49.138 0 67.882 18.744 18.742 49.138 18.744 67.882 0 81.594-81.59 126.53-190.074 126.53-305.466 0-115.39-44.936-223.876-126.53-305.47-9.372-9.374-21.656-14.060-33.94-14.060v0zM549.020 218.98c-12.286 0-24.566 4.686-33.942 14.058-18.746 18.746-18.746 49.134 0 67.88 81.1 81.1 81.1 213.058 0 294.156-18.746 18.746-18.746 49.138 0 67.882s49.136 18.744 67.882 0c118.53-118.53 118.53-311.392 0-429.922-9.372-9.368-21.656-14.054-33.94-14.054zM416.006 0c-8.328 0-16.512 3.25-22.634 9.374l-246.626 246.626h-114.746c-17.672 0-32 14.326-32 32v320c0 17.672 14.328 32 32 32h114.746l246.626 246.628c9.154 9.154 22.916 11.89 34.874 6.936 11.958-4.952 19.754-16.622 19.754-29.564v-832c0-12.944-7.796-24.612-19.754-29.564-3.958-1.64-8.118-2.436-12.24-2.436z" />
</font>
</defs>
</svg>
